<?xml version="1.0" encoding="utf-8"?>
<!-- Generator: Adobe Illustrator 21.1.0, SVG Export Plug-In . SVG Version: 6.00 Build 0)  -->
<svg version="1.1" id="Layer_1" xmlns="http://www.w3.org/2000/svg" xmlns:xlink="http://www.w3.org/1999/xlink" x="0px" y="0px"
	 width="761.4px" height="153.7px" viewBox="0 0 761.4 153.7" style="enable-background:new 0 0 761.4 153.7;" xml:space="preserve"
	>
<style type="text/css">
	.st0{fill:#23232D;}
	.st1{fill:#FA233C;}
</style>
<g>
	<path class="st0" d="M101.8,152.7H62.2c-15.1,0-23.1-1.9-32.2-5.5c-11.6-4.6-19.9-12.6-24.9-24.1c-1.8-4.4-3.2-8.6-4-12.5
		C0.5,106.6,0,102,0,96.8V0h32.7v93.5c0,4.4,0.5,8.2,1.4,11.4c0.9,3.3,2.6,6.5,5.1,9.8c3.4,4.7,7.4,7.7,11.8,9.2
		c4.5,1.5,10.2,2.2,17.1,2.2h33.6L101.8,152.7z"/>
	<path class="st0" d="M465.7,38.8h-62.8v22.8h61.2c0,0,14.9,0,14.8,22.8h-52.8c-9.5,0-17.2,3.3-23.4,9.8c-6.1,6.5-9.3,14.8-9.3,24.7
		c0,9.5,2.5,17.5,9.3,23.8c6.8,6.2,14,10.1,23.4,10.1h85h0.1V84.3C511.2,84.3,510.5,38.7,465.7,38.8z M435,107.1h44v22.8h-0.1h-44
		c-14.7,0-14.7-11.4-14.7-11.4S420,107.1,435,107.1"/>
	<path class="st0" d="M192.8,38.8H130v22.8h61.2c0,0,14.9,0,14.8,22.8h-52.8c-9.5,0-17.2,3.3-23.4,9.8c-6.1,6.5-9.3,14.8-9.3,24.7
		c0,9.5,2.5,17.5,9.3,23.8c6.8,6.2,14,10.1,23.4,10.1h85h0.1V84.3C238.3,84.3,237.6,38.7,192.8,38.8z M162.1,107.1h44v22.8H206h-44
		c-14.7,0-14.7-11.4-14.7-11.4S147.1,107.1,162.1,107.1"/>
	<path class="st0" d="M715.3,52.4c-11.9-9.8-26-14.9-45.6-14.9c-17.9,0-31.7,4.5-43.9,13.8c-13.7,10.2-20.5,24.3-20.5,42.1
		c0,21.4,6.4,37.1,19,47.2c11,8.8,25,13.1,44.8,13.1s33.7-4.8,45.3-14.4c12.5-10.5,18.7-25.7,18.7-45.4
		C733.1,76.2,727.2,62.4,715.3,52.4z M693.7,121.1c-5.3,6.8-13.3,10.2-24.1,10.2c-9.4,0-17.3-3.3-23.2-9.8
		c-5.9-6.7-8.9-15.5-8.9-26.6c0-9.7,2.9-17.6,8.8-24c5.9-6.3,13.4-9.5,22.4-9.5c9.8,0,17.8,3.1,23.5,9.2c5.8,6.2,8.6,13.9,8.6,23.1
		C700.9,105.6,698.6,114.7,693.7,121.1z"/>
	<g>
		<path class="st0" d="M750,40.8c5.2,0,9.4,4.2,9.4,9.4c0,5.2-4.2,9.4-9.4,9.4s-9.4-4.2-9.4-9.4S744.8,40.8,750,40.8 M750,38.8
			c-6.3,0-11.4,5.1-11.4,11.4s5.1,11.4,11.4,11.4s11.4-5.1,11.4-11.4C761.4,43.9,756.3,38.8,750,38.8L750,38.8z"/>
	</g>
	<path class="st0" d="M600,61.5h-33.9v91h-32.2V38.6h32.2v11.5c0,0,8.8-12.7,26.7-12.7c2.5,0,4.8,0.3,7,0.9L600,61.5z"/>
	<path class="st0" d="M751.3,51.4c4.1-0.5,4-6.5-0.5-6.5h-4.6v10.4h1.3v-3.9h2.3l3.4,3.9h1.4v-0.2L751.3,51.4z M747.5,50.3v-4.1h3.3
		c2.9,0,2.9,4.1-0.1,4.1H747.5z"/>
	<g>
		<polygon class="st1" points="374,38.7 351.4,38.7 261,129.1 261,151.7 283.6,151.7 374,61.3 		"/>
		<polygon class="st1" points="289.7,67.7 261,67.7 261,38.7 319,38.7 		"/>
		<polygon class="st1" points="345.3,122.7 374,122.7 374,151.7 316,151.7 		"/>
	</g>
</g>
</svg>
