<?xml version="1.0" encoding="utf-8"?>
<!-- Generator: Adobe Illustrator 21.1.0, SVG Export Plug-In . SVG Version: 6.00 Build 0)  -->
<svg version="1.1" id="Layer_1" xmlns="http://www.w3.org/2000/svg" xmlns:xlink="http://www.w3.org/1999/xlink" x="0px" y="0px"
	 width="48px" height="48px" viewBox="0 0 48 48" enable-background="new 0 0 48 48" xml:space="preserve">
<path fill="#444444" d="M34,47H14c-2.757,0-5-2.243-5-5V6c0-2.757,2.243-5,5-5h20c2.757,0,5,2.243,5,5v36C39,44.757,36.757,47,34,47
	z"/>
<rect x="9" y="7" fill="#23232D" width="30" height="32"/>
<path fill="#BFDEE0" d="M36,37H12c-0.552,0-1-0.448-1-1V10c0-0.552,0.448-1,1-1h24c0.552,0,1,0.448,1,1v26
	C37,36.552,36.552,37,36,37z"/>
<path fill="#9BCED3" d="M36,37H12L36,9c0.552,0,1,0.448,1,1v26C37,36.552,36.552,37,36,37z"/>
<circle fill="#969696" cx="24" cy="43" r="2"/>
</svg>
