<?xml version="1.0" encoding="utf-8"?>
<!-- Generator: Adobe Illustrator 21.0.0, SVG Export Plug-In . SVG Version: 6.00 Build 0)  -->
<svg version="1.1" id="Layer_1" xmlns="http://www.w3.org/2000/svg" xmlns:xlink="http://www.w3.org/1999/xlink" x="0px" y="0px"
	 width="48px" height="48px" viewBox="0 0 48 48" style="enable-background:new 0 0 48 48;" xml:space="preserve">
<style type="text/css">
	.st0{fill:#72C472;}
	.st1{fill:#BADEFC;}
	.st2{fill:#FF4D67;}
	.st3{fill:#FFFFFF;}
</style>
<g>
	<path class="st0" d="M13.091,38.727c1.038-1.739,1.904-4.462,0-7.273c-1.266-1.869-3.636-3.78-3.636-5.455
		c0-2.225,5.406-3.04,7.273-5.455c1.651-2.135-0.15-5.917-0.961-7.275c-0.733-1.229-2.487-3.21-3.816-4.453
		C6.543,12.617,3,18.89,3,26c0,6.183,2.688,11.724,6.941,15.567C11.286,40.808,12.656,39.456,13.091,38.727z"/>
	<path class="st1" d="M24,5c-4.488,0-8.637,1.42-12.05,3.817c1.33,1.243,3.083,3.224,3.816,4.453
		c0.811,1.359,2.612,5.14,0.961,7.275C14.86,22.96,9.455,23.775,9.455,26c0,1.674,2.37,3.585,3.636,5.455
		c1.904,2.811,1.038,5.534,0,7.273c-0.435,0.729-1.805,2.08-3.15,2.84C13.665,44.933,18.585,47,24,47
		c0.321,0,0.634-0.034,0.952-0.048L24,46c-3.917-3.167-4.167-13.583,2-16c3.272-1.282,4.333,5.874,10.75,4.083
		c1.172-0.327,4.362,1.749,3.449,5.28C43.198,35.733,45,31.077,45,26C45,14.402,35.598,5,24,5z"/>
	<path class="st0" d="M36.75,34.083C30.333,35.874,29.272,28.718,26,30c-6.167,2.417-5.917,12.833-2,16l0.952,0.952
		c6.132-0.276,11.586-3.154,15.248-7.588C41.112,35.833,37.922,33.756,36.75,34.083z"/>
	<path class="st2" d="M34,1c-4.971,0-9,4.029-9,9c0,5.369,6.815,12.298,8.584,14.006c0.233,0.225,0.598,0.225,0.831,0
		C36.185,22.298,43,15.369,43,10C43,5.029,38.971,1,34,1z"/>
	<circle class="st3" cx="34" cy="10" r="3"/>
</g>
</svg>
