<?xml version="1.0" encoding="utf-8"?>
<!-- Generator: Adobe Illustrator 21.0.0, SVG Export Plug-In . SVG Version: 6.00 Build 0)  -->
<svg version="1.1" id="Layer_1" xmlns="http://www.w3.org/2000/svg" xmlns:xlink="http://www.w3.org/1999/xlink" x="0px" y="0px"
	 viewBox="0 0 72 72" style="enable-background:new 0 0 72 72;" xml:space="preserve">
<style type="text/css">
	.st0{fill:#666666;}
	.st1{fill:#FFFFFF;}
</style>
<title>icon-instagram</title>
<rect class="st0" width="72" height="72"/>
<path class="st1" d="M47,18H24.9c-3.8,0-7,3.1-7,7v22c0,3.8,3.1,7,7,7H47c3.8,0,7-3.1,7-7V25C54,21.1,50.9,18,47,18z M49,22.2h0.8
	v6.1h-6.1v-6.1H49z M30.8,32.3c2-2.8,6-3.5,8.8-1.4s3.5,6,1.4,8.8c-2,2.8-6,3.5-8.8,1.4c-1.7-1.2-2.6-3.1-2.6-5.1
	C29.6,34.7,30.1,33.4,30.8,32.3z M50.5,47c0,1.9-1.5,3.4-3.5,3.5H24.9c-1.9,0-3.4-1.5-3.5-3.5V32.3h5.4c-2,5,0.4,10.8,5.4,12.8
	S43,44.7,45,39.7c1-2.4,1-5,0-7.4h5.4L50.5,47z"/>
</svg>
