<?xml version="1.0" encoding="utf-8"?>
<!-- Generator: Adobe Illustrator 21.0.0, SVG Export Plug-In . SVG Version: 6.00 Build 0)  -->
<svg version="1.1" id="Layer_1" xmlns="http://www.w3.org/2000/svg" xmlns:xlink="http://www.w3.org/1999/xlink" x="0px" y="0px"
	 viewBox="0 0 72 72" style="enable-background:new 0 0 72 72;" xml:space="preserve">
<style type="text/css">
	.st0{fill:#666666;}
	.st1{fill:#FFFFFF;}
</style>
<title>icon-linkedin</title>
<rect class="st0" width="72" height="72"/>
<path class="st1" d="M25.9,51.1h-7V28.6h7L25.9,51.1z M22.2,25.8L22.2,25.8c-2.2,0.2-4.1-1.5-4.2-3.6c0-0.1,0-0.2,0-0.3
	c0-2.2,1.7-3.9,4.3-3.9c2.2-0.2,4,1.4,4.2,3.6c0,0.1,0,0.2,0,0.3C26.5,24.1,24.8,25.8,22.2,25.8z M54,51.1h-8V39.4
	c0-3-1.2-5.1-4-5.1c-1.7,0-3.3,1.1-3.8,2.8c-0.2,0.6-0.2,1.2-0.2,1.8v12.2h-7.9c0,0,0.1-20.6,0-22.5h7.9v3.5c0.5-1.5,3-3.7,7-3.7
	c5,0,8.9,3.2,8.9,10.2L54,51.1z"/>
</svg>
