<svg xmlns="http://www.w3.org/2000/svg" width="72" height="72" viewBox="0 0 72 72"><title>icon-linkedin</title><rect width="72" height="72" fill="#0077b5"/><path d="M25.889,51.064H18.871V28.6h7.019ZM22.2,25.789h-.051A3.9,3.9,0,0,1,17.963,21.9c0-2.22,1.7-3.9,4.287-3.9a3.914,3.914,0,0,1,4.232,3.895C26.481,24.067,24.838,25.789,22.2,25.789ZM53.967,51.064H46.009V39.44c0-3.043-1.243-5.119-3.982-5.119a4.019,4.019,0,0,0-3.8,2.752,5.171,5.171,0,0,0-.172,1.836V51.064H30.172s.1-20.592,0-22.463h7.884v3.525c.466-1.542,2.984-3.742,7.006-3.742,4.986,0,8.9,3.231,8.9,10.19Z" fill="#fff"/></svg>