<?xml version="1.0" encoding="utf-8"?>
<!-- Generator: Adobe Illustrator 21.0.0, SVG Export Plug-In . SVG Version: 6.00 Build 0)  -->
<svg version="1.1" id="Layer_1" xmlns="http://www.w3.org/2000/svg" xmlns:xlink="http://www.w3.org/1999/xlink" x="0px" y="0px"
	 viewBox="0 0 20 14" style="enable-background:new 0 0 20 14;" xml:space="preserve">
<style type="text/css">
	.st0{fill:#C8C8D2;}
</style>
<title>icon-menu</title>
<path class="st0" d="M0.5,6h19.1C19.8,6,20,6.2,20,6.5v1C20,7.8,19.8,8,19.5,8H0.5C0.2,8,0,7.8,0,7.5v-1C0,6.2,0.2,6,0.5,6z"/>
<path class="st0" d="M0.4,0h11.1C11.8,0,12,0.2,12,0.5v1C12,1.8,11.8,2,11.6,2H0.4C0.2,2,0,1.8,0,1.5v-1C0,0.2,0.2,0,0.4,0z"/>
<path class="st0" d="M14.5,0h5C19.8,0,20,0.2,20,0.5v1C20,1.8,19.8,2,19.5,2h-5C14.2,2,14,1.8,14,1.5v-1C14,0.2,14.2,0,14.5,0z"/>
<path class="st0" d="M5.5,14h-5C0.2,14,0,13.8,0,13.5v-1C0,12.2,0.2,12,0.5,12h5C5.8,12,6,12.2,6,12.5v1C6,13.8,5.8,14,5.5,14z"/>
<path class="st0" d="M19.6,14H8.4C8.2,14,8,13.8,8,13.5v-1C8,12.2,8.2,12,8.4,12h11.1c0.3,0,0.5,0.2,0.4,0.5v1
	C20,13.8,19.8,14,19.6,14z"/>
</svg>
