<svg xmlns="http://www.w3.org/2000/svg" xmlns:xlink="http://www.w3.org/1999/xlink" width="72" height="72" viewBox="0 0 72 72"><defs><linearGradient id="a" y1="72" x2="72" gradientUnits="userSpaceOnUse"><stop offset="0" stop-color="#f5ff00"/><stop offset="0.3" stop-color="#f50000"/><stop offset="0.7" stop-color="#b900b4"/><stop offset="1" stop-color="#1400c8"/></linearGradient></defs><title>icon-instagram</title><rect width="72" height="72" fill="url(#a)"/><path d="M47.017,18H24.93a6.966,6.966,0,0,0-6.958,6.958V47.049a6.966,6.966,0,0,0,6.958,6.958H47.017a6.966,6.966,0,0,0,6.958-6.958V24.956A6.966,6.966,0,0,0,47.017,18Zm2,4.151.8,0v6.1l-6.084.019-.021-6.1ZM30.836,32.308A6.327,6.327,0,1,1,29.637,36,6.325,6.325,0,0,1,30.836,32.308ZM50.467,47.049a3.454,3.454,0,0,1-3.45,3.45H24.93a3.454,3.454,0,0,1-3.45-3.45V32.308h5.375a9.844,9.844,0,1,0,18.238,0h5.375Z" fill="#fff"/></svg>