<?xml version="1.0" encoding="utf-8"?>
<!-- Generator: Adobe Illustrator 21.0.0, SVG Export Plug-In . SVG Version: 6.00 Build 0)  -->
<svg version="1.1" id="Layer_1" xmlns="http://www.w3.org/2000/svg" xmlns:xlink="http://www.w3.org/1999/xlink" x="0px" y="0px"
	 viewBox="0 0 780 180" style="enable-background:new 0 0 780 180;" xml:space="preserve">
<style type="text/css">
	.st0{fill:#23232D;}
	.st1{fill:#FA233C;}
</style>
<g>
	<path class="st0" d="M111.7,165.8H72.1c-15.1,0-23.1-1.9-32.2-5.5C28.3,155.7,20,147.7,15,136.2c-1.8-4.4-3.2-8.6-4-12.5
		c-0.6-4-1.1-8.6-1.1-13.8V13.1h32.7l0,93.5c0,4.4,0.5,8.2,1.4,11.4c0.9,3.3,2.6,6.5,5.1,9.8c3.4,4.7,7.4,7.7,11.8,9.2
		c4.5,1.5,10.2,2.2,17.1,2.2h33.6L111.7,165.8z"/>
	<path class="st0" d="M475.6,51.9l-62.8,0v22.8l61.2,0c0,0,14.9,0,14.8,22.8H436c-9.5,0-17.2,3.3-23.4,9.8
		c-6.1,6.5-9.3,14.8-9.3,24.7c0,9.5,2.5,17.5,9.3,23.8c6.8,6.2,14,10.1,23.4,10.1l85,0h0.1V97.4C521.1,97.4,520.4,51.8,475.6,51.9z
		 M444.9,120.2h44l0,22.8h-0.1h-44c-14.7,0-14.7-11.4-14.7-11.4S429.9,120.2,444.9,120.2"/>
	<path class="st0" d="M202.7,51.9l-62.8,0v22.8l61.2,0c0,0,14.9,0,14.8,22.8h-52.8c-9.5,0-17.2,3.3-23.4,9.8
		c-6.1,6.5-9.3,14.8-9.3,24.7c0,9.5,2.5,17.5,9.3,23.8c6.8,6.2,14,10.1,23.4,10.1l85,0h0.1V97.4C248.2,97.4,247.5,51.8,202.7,51.9z
		 M172,120.2h44l0,22.8h-0.1h-44c-14.7,0-14.7-11.4-14.7-11.4S157,120.2,172,120.2"/>
	<path class="st0" d="M725.2,65.5c-11.9-9.8-26-14.9-45.6-14.9c-17.9,0-31.7,4.5-43.9,13.8c-13.7,10.2-20.5,24.3-20.5,42.1
		c0,21.4,6.4,37.1,19,47.2c11,8.8,25,13.1,44.8,13.1c19.8,0,33.7-4.8,45.3-14.4c12.5-10.5,18.7-25.7,18.7-45.4
		C743,89.3,737.1,75.5,725.2,65.5z M703.6,134.2c-5.3,6.8-13.3,10.2-24.1,10.2c-9.4,0-17.3-3.3-23.2-9.8c-5.9-6.7-8.9-15.5-8.9-26.6
		c0-9.7,2.9-17.6,8.8-24c5.9-6.3,13.4-9.5,22.4-9.5c9.8,0,17.8,3.1,23.5,9.2c5.8,6.2,8.6,13.9,8.6,23.1
		C710.8,118.7,708.5,127.8,703.6,134.2z"/>
	<g>
		<path class="st0" d="M759.9,53.9c5.2,0,9.4,4.2,9.4,9.4c0,5.2-4.2,9.4-9.4,9.4c-5.2,0-9.4-4.2-9.4-9.4
			C750.5,58.1,754.7,53.9,759.9,53.9 M759.9,51.9c-6.3,0-11.4,5.1-11.4,11.4c0,6.3,5.1,11.4,11.4,11.4s11.4-5.1,11.4-11.4
			C771.3,57,766.2,51.9,759.9,51.9L759.9,51.9z"/>
	</g>
	<path class="st0" d="M609.9,74.6H576v91h-32.2V51.7H576v11.5c0,0,8.8-12.7,26.7-12.7c2.5,0,4.8,0.3,7,0.9L609.9,74.6z"/>
	<path class="st0" d="M761.2,64.5c4.1-0.5,4-6.5-0.5-6.5h-4.6v10.4h1.3v-3.9h2.3l3.4,3.9h1.4v-0.2L761.2,64.5z M757.4,63.4v-4.1h3.3
		c2.9,0,2.9,4.1-0.1,4.1H757.4z"/>
	<g>
		<polygon class="st1" points="383.9,51.8 361.3,51.8 270.9,142.2 270.9,164.8 293.5,164.8 383.9,74.4 		"/>
		<polygon class="st1" points="299.6,80.8 270.9,80.8 270.9,51.8 328.9,51.8 		"/>
		<polygon class="st1" points="355.2,135.8 383.9,135.8 383.9,164.8 325.9,164.8 		"/>
	</g>
</g>
</svg>
