<?xml version="1.0" encoding="utf-8"?>
<!-- Generator: Adobe Illustrator 22.0.1, SVG Export Plug-In . SVG Version: 6.00 Build 0)  -->
<svg version="1.1" id="Layer_1" xmlns="http://www.w3.org/2000/svg" xmlns:xlink="http://www.w3.org/1999/xlink" x="0px" y="0px"
	 width="780px" height="246px" viewBox="0 0 780 246" style="enable-background:new 0 0 780 246;" xml:space="preserve">
<style type="text/css">
	.st0{fill:#181614;}
	.st1{fill:#DE2428;}
</style>
<path class="st0" d="M111.4,165.8H71.8c-15.1,0-23.1-1.9-32.2-5.5c-11.6-4.6-19.9-12.6-24.9-24.1c-1.8-4.4-3.2-8.6-4-12.5
	c-0.6-4-1.1-8.6-1.1-13.8V13.1h32.7l0,93.5c0,4.4,0.5,8.2,1.4,11.4c0.9,3.3,2.6,6.5,5.1,9.8c3.4,4.7,7.4,7.7,11.8,9.2
	c4.5,1.5,10.2,2.2,17.1,2.2h33.6V165.8z"/>
<path class="st0" d="M475.3,51.9l-62.8,0v22.8l61.2,0c0,0,14.9,0,14.8,22.8h-52.8c-9.5,0-17.2,3.3-23.4,9.8
	c-6.1,6.5-9.3,14.8-9.3,24.7c0,9.5,2.5,17.5,9.3,23.8c6.8,6.2,14,10.1,23.4,10.1l85,0h0.1V97.4C520.8,97.4,520.1,51.9,475.3,51.9z
	 M444.5,120.2h44l0,22.8h-0.1h-44c-14.7,0-14.7-11.4-14.7-11.4S429.6,120.2,444.5,120.2"/>
<path class="st0" d="M202.3,51.9l-62.8,0v22.8l61.2,0c0,0,14.9,0,14.8,22.8h-52.8c-9.5,0-17.2,3.3-23.4,9.8
	c-6.1,6.5-9.3,14.8-9.3,24.7c0,9.5,2.5,17.5,9.3,23.8c6.8,6.2,14,10.1,23.4,10.1l85,0h0.1V97.4C247.8,97.4,247.2,51.9,202.3,51.9z
	 M171.6,120.2h44l0,22.8h-0.1h-44c-14.7,0-14.7-11.4-14.7-11.4S156.7,120.2,171.6,120.2"/>
<path class="st0" d="M724.9,65.6c-11.9-9.8-26-14.9-45.6-14.9c-17.9,0-31.7,4.5-43.9,13.8c-13.7,10.2-20.5,24.3-20.5,42.1
	c0,21.4,6.4,37.1,19,47.2c11,8.8,25,13.1,44.8,13.1c19.8,0,33.7-4.8,45.3-14.4c12.5-10.5,18.7-25.7,18.7-45.4
	C742.6,89.3,736.7,75.6,724.9,65.6z M703.3,134.2c-5.3,6.8-13.3,10.2-24.1,10.2c-9.4,0-17.3-3.3-23.2-9.8
	c-5.9-6.7-8.9-15.5-8.9-26.6c0-9.7,2.9-17.6,8.8-24c5.9-6.3,13.4-9.5,22.4-9.5c9.8,0,17.8,3.1,23.5,9.2c5.8,6.2,8.6,13.9,8.6,23.1
	C710.4,118.8,708.2,127.8,703.3,134.2z"/>
<path class="st0" d="M609.5,74.7h-33.8v91h-32.2V51.8h32.2v11.5c0,0,8.8-12.7,26.7-12.7c2.5,0,4.8,0.3,7,0.9L609.5,74.7z"/>
<g>
	<polygon class="st1" points="383.6,51.8 361,51.8 270.6,142.2 270.6,164.8 293.2,164.8 383.6,74.4 	"/>
	<polygon class="st1" points="299.3,80.8 270.6,80.8 270.6,51.8 328.6,51.8 	"/>
	<polygon class="st1" points="354.9,135.8 383.6,135.8 383.6,164.8 325.6,164.8 	"/>
</g>
<g>
	<path d="M26.9,189h8.5l16.1,42.8h-9.6l-3.4-9.9h-15l-3.4,9.9h-9.2L26.9,189z M36.1,214.6l-5.2-15.4l-5.2,15.4H36.1z"/>
	<path d="M90.1,189h16c6.6,0,11.7,1.8,15.3,5.3c3.7,3.6,5.5,8.8,5.5,15.8c0,3.6-0.5,6.7-1.5,9.4c-1,2.7-2.5,4.9-4.4,6.8
		s-4.3,3.2-7,4.1c-2.8,0.9-5.9,1.4-9.4,1.4H90.1V189z M104.8,224.2c2.3,0,4.3-0.3,5.9-1c1.6-0.7,3-1.6,4-2.8c1-1.2,1.8-2.7,2.2-4.4
		c0.5-1.7,0.7-3.6,0.7-5.7c0-2.1-0.2-4-0.6-5.7s-1.1-3.1-2-4.3c-0.9-1.2-2.1-2.1-3.6-2.7s-3.2-1-5.4-1H99v27.6H104.8z"/>
	<path d="M161.7,189h10l10.4,30.3l10.7-30.3h9.6l-16.1,42.8h-8.5L161.7,189z"/>
	<path d="M240.9,189h29.2v7.6h-20.3v9.4h19.1v7.7h-19.1v10.6h21.5l-0.9,7.6h-29.6V189z"/>
	<path d="M311.4,189h15.2c3.4,0,6.1,0.4,8.3,1.2c2.2,0.8,3.9,1.8,5.1,3.1c1.2,1.3,2.1,2.7,2.6,4.2c0.5,1.5,0.7,3.1,0.7,4.5
		c0,2.8-0.5,5.1-1.5,7c-1,1.9-2.7,3.5-5,4.7l8.7,18.2h-9.7l-7.2-16.1h-8.4v16.1h-8.8V189z M327.1,208.3c1.4,0,2.6-0.2,3.5-0.5
		s1.7-0.7,2.2-1.3c0.5-0.5,0.9-1.2,1.1-1.9c0.2-0.8,0.3-1.6,0.3-2.5c0-0.8-0.1-1.5-0.4-2.2s-0.7-1.3-1.2-1.9c-0.6-0.5-1.4-1-2.4-1.3
		s-2.3-0.5-3.9-0.5h-6.2v11.9H327.1z"/>
	<path d="M393.3,196.7h-12.9V189h34.8v7.7h-12.9v35.1h-9V196.7z"/>
	<path d="M454.3,189h8.9v42.8h-8.9V189z"/>
	<path d="M512,217.9c0.2,2.6,1,4.6,2.5,5.8s3.7,1.8,6.6,1.8c1.4,0,2.6-0.2,3.5-0.5c1-0.3,1.7-0.7,2.3-1.2c0.6-0.5,1-1.1,1.3-1.8
		c0.3-0.7,0.4-1.4,0.4-2.2c0-1.1-0.4-2.2-1.3-3.2c-0.8-1-2.4-1.7-4.6-2.1l-5.6-1c-2.2-0.4-4.1-0.9-5.8-1.6c-1.7-0.6-3.1-1.5-4.2-2.5
		c-1.1-1-2-2.3-2.6-3.8c-0.6-1.5-0.9-3.2-0.9-5.3s0.4-3.8,1.2-5.4c0.8-1.6,2-2.9,3.4-3.9c1.5-1,3.2-1.8,5.2-2.4
		c2-0.5,4.3-0.8,6.7-0.8c3.1,0,5.7,0.4,7.8,1.1s3.8,1.7,5,2.8c1.3,1.2,2.2,2.5,2.8,4.1c0.6,1.6,1,3.2,1.2,4.9l-8.5,1.1
		c-0.4-2.4-1.3-4.1-2.5-5.1c-1.3-1-3.2-1.6-5.7-1.6c-1.5,0-2.8,0.1-3.8,0.4c-1,0.3-1.8,0.6-2.4,1c-0.6,0.4-1,0.9-1.3,1.5
		c-0.2,0.6-0.4,1.1-0.4,1.7c0,1.6,0.4,2.8,1.3,3.6c0.9,0.8,2.4,1.4,4.6,1.9l5.9,1.1c4.6,0.9,8,2.4,10.2,4.5c2.2,2.1,3.2,5,3.2,8.9
		c0,1.9-0.3,3.6-1,5.2c-0.7,1.6-1.7,3-3.1,4.1c-1.4,1.2-3.1,2.1-5.2,2.8c-2.1,0.7-4.5,1-7.3,1c-5.8,0-10.3-1.2-13.4-3.8
		c-3.1-2.5-4.8-6.3-5-11.3H512z"/>
	<path d="M577.9,189h8.9v42.8h-8.9V189z"/>
	<path d="M629.2,189h8l17.6,28.1V189h8.7v42.8h-8L637.9,204v27.8h-8.7V189z"/>
	<path d="M725.7,208.4h16.4v18.1c-2.2,2-4.8,3.6-7.9,4.7c-3,1.1-6.2,1.7-9.4,1.7c-3.4,0-6.4-0.5-8.9-1.6c-2.5-1.1-4.7-2.6-6.3-4.6
		s-2.9-4.3-3.8-7.1c-0.8-2.8-1.3-5.8-1.3-9.2c0-3.5,0.5-6.6,1.4-9.4c0.9-2.8,2.2-5.1,3.9-7.1c1.7-2,3.8-3.5,6.2-4.5
		c2.4-1,5.2-1.6,8.2-1.6c2.8,0,5.1,0.3,7.1,1c2,0.7,3.7,1.6,5,2.8c1.4,1.2,2.5,2.6,3.3,4.2c0.8,1.6,1.4,3.3,1.8,5.2l-8.9,1.1
		c-0.2-1.1-0.5-2-0.9-2.8c-0.3-0.8-0.8-1.5-1.5-2.1c-0.6-0.6-1.4-1-2.4-1.3c-1-0.3-2.2-0.5-3.6-0.5c-3.5,0-6.1,1.3-7.8,3.9
		c-1.7,2.6-2.6,6.3-2.6,11c0,4.8,0.9,8.4,2.6,11s4.6,3.9,8.5,3.9c1.9,0,3.5-0.2,4.9-0.6c1.4-0.4,2.7-1,4-1.8v-7.1h-8.2V208.4z"/>
</g>
<g>
	<path d="M747.4,57.8h-5.2v-2.4h13.1v2.4h-5.2v13.4h-2.7V57.8z M757.6,55.4h3.3l5.1,12.7l5.1-12.7h3.3v15.7H772V59.3L767,71.1h-2.2
		L760,59.3v11.8h-2.4V55.4z"/>
</g>
</svg>
